<?xml version="1.0" encoding="utf-8"?>
<!-- Generator: Adobe Illustrator 16.0.0, SVG Export Plug-In . SVG Version: 6.00 Build 0)  -->
<!DOCTYPE svg PUBLIC "-//W3C//DTD SVG 1.1//EN" "http://www.w3.org/Graphics/SVG/1.1/DTD/svg11.dtd">
<svg version="1.1" id="レイヤー_1" xmlns="http://www.w3.org/2000/svg" xmlns:xlink="http://www.w3.org/1999/xlink" x="0px"
	 y="0px" width="386.58px" height="170.079px" viewBox="0 0 386.58 170.079" enable-background="new 0 0 386.58 170.079"
	 xml:space="preserve">
<path fill="#949494" d="M21.294,109.756c4.764,11.646,12.629,15.384,16.512,13.793c6.601-2.693,9.114-27.586,0.437-63.613
	C21.427,71.645,14.526,93.191,21.294,109.756 M44.087,45.773c30.026-12.27,52.677-0.08,61.563,21.663
	c8.406,20.582,2.973,47.57-28.005,68.229l-9.963-5.895c28.002-18.691,33.853-39.507,26.449-57.628
	c-7.091-17.342-22.859-26-45.129-17.659c10.222,40.532,7.801,74.898-5.656,80.398c-10.356,4.229-25.129-2.725-32.216-20.064
	C1.503,91.265,13.671,58.205,44.087,45.773"/>
<path fill="#949494" d="M165.137,62.122l9.008,5.529c-9.961,8.278-14.341,14.853-14.727,20.426
	c-0.634,9.209,8.979,16.178,36.182,18.053c12.271,0.846,22.94,0.602,37.4-1.769l1.199,11.017
	c-14.586,2.218-25.672,2.435-39.48,1.486c-33.196-2.289-48.149-13.128-47.148-27.631C148.128,81.134,153.635,72.404,165.137,62.122
	 M225.566,25.079l2.613,8.874c-13.479,6.5-26.481,14.151-37.973,22.189l-8.646-6.619c8.946-5.832,17.421-10.853,25.293-15.222
	l-42.688-2.934l0.721-10.46L225.566,25.079z"/>
<path fill="#949494" d="M316.42,95c-4.539-2.484-11.312-0.299-15.606,7.554c-4.3,7.85-1.752,13.387,2.791,15.872
	c4.414,2.412,9.927,0.49,14.321-6.67c0.266-0.485,0.538-0.975,0.806-1.469C322.211,102.473,321.077,97.549,316.42,95
	 M267.339,134.602c22.011,5.507,32.188,2.631,40.826-7.626c-3.402,0.687-7.005-0.011-10.318-1.822
	c-9.691-5.299-14.196-15.415-7.212-28.172c6.575-12.019,18.28-15.65,28.344-10.146c4.041,2.211,6.684,5.254,7.874,8.611
	l6.641-12.145L281.495,54.85l5.031-9.195l51.999,28.449l12.683-23.177L361.76,56.7l-12.684,23.176l37.405,20.469l-5.031,9.192
	l-37.405-20.463l-14.365,26.243c-13.419,24.532-24.26,38.522-61.426,30.14L267.339,134.602z"/>
</svg>
