<?xml version="1.0" encoding="utf-8"?>
<!-- Generator: Adobe Illustrator 16.0.0, SVG Export Plug-In . SVG Version: 6.00 Build 0)  -->
<!DOCTYPE svg PUBLIC "-//W3C//DTD SVG 1.1//EN" "http://www.w3.org/Graphics/SVG/1.1/DTD/svg11.dtd">
<svg version="1.1" id="レイヤー_1" xmlns="http://www.w3.org/2000/svg" xmlns:xlink="http://www.w3.org/1999/xlink" x="0px"
	 y="0px" width="488.16px" height="170.079px" viewBox="-130.109 181.96 488.16 170.079"
	 enable-background="new -130.109 181.96 488.16 170.079" xml:space="preserve">
<path fill="#949494" d="M-85.51,327.169c-8.023-11.112-29.157-40.854-43.534-60.997l10.088-7.284
	c14.359,20.838,33.725,47.896,43.632,61.61c9.988,13.824,18.326,14.87,29.662,6.686c11.106-8.021,18.59-21.529,19.986-43.235
	l10.431,6.095c-1.957,22.104-10.142,36.809-23.743,46.629C-56.434,349.279-71.188,347.001-85.51,327.169"/>
<path fill="#949494" d="M48.828,228.359c20.623-4.544,33.73,3.59,36.951,18.204c3.881,17.618-8.121,36.587-46.377,48.17
	l-6.631-7.989c33.95-10.347,44.512-24.131,41.655-37.105c-2.047-9.286-10.322-14.334-24.93-11.113
	c-13.386,2.947-29.752,13.144-47.904,21.722l-6.4-8.896C15.072,242.82,35.035,231.403,48.828,228.359"/>
<path fill="#949494" d="M218.125,226.478l10.205-4.079c12.27,18.026,15.721,33.854,13.66,57.9l-12.609-0.469
	C231.725,257.451,228.943,242.385,218.125,226.478 M149.859,283.389l3.809-9.403c6.422,5.761,10.926,8.405,14.98,9.492
	c3.514,0.933,5.791,0.524,9.777-3.038c5.92-5.371,12.859-20.015,17.215-36.366c2.449-9.188,0.393-12.335-8.654-14.749
	c-2.301-0.613-5.213-1.1-8.393-1.651c-14.35,22.363-31.115,42.928-48.34,58.166l-8.831-8.146
	c15.979-13.249,31.52-31.396,44.754-51.744c-8.297-0.905-17.646-1.661-26.725-2.343l-0.271-10.926
	c11.879,1.575,23.113,2.829,32.729,4.236c6.195-10.218,11.648-20.917,16.395-31.668l11.152,4.86
	c-4.588,9.625-9.795,19.375-15.467,28.719c2.604,0.549,4.797,0.989,6.826,1.534c16.887,4.495,20.543,11.403,16.408,26.944
	c-4.607,17.295-12.072,32.815-19.789,40.602c-6.752,6.877-12.947,8.41-19.436,6.683C162.6,293.151,157.217,289.98,149.859,283.389"
	/>
<path fill="#949494" d="M297.501,296.862c-8.037,3.015-16.322,6.562-23.771,10.419l-9.639-4.766
	c2.357-11.771,7.346-22.137,14.572-31.03c7.404-9.122,16.662-18.531,31.309-30.586l7.992,9.004
	c-13.768,10.973-22.588,19.84-29.373,28.199c-4.141,5.099-7.9,11.054-9.99,16.743c6.377-2.749,13.027-5.634,20.457-8.786
	L297.501,296.862z M356.741,278.684c-7.271,14.271-14.684,25.179-22.615,34.95c-17.447,21.488-36.834,38.707-75.752,34.3
	l-2.121-11.804c35.77,4.732,51.756-9.848,68.059-29.929c8.02-9.878,14.799-20.223,21.857-33.577L356.741,278.684z"/>
</svg>
